<svg xmlns="http://www.w3.org/2000/svg" viewBox="0 0 64 64" fill="none" role="img"
  aria-label="剑风传奇">
  <defs>
    <linearGradient id="bg" x1="0" y1="0" x2="64" y2="64" gradientUnits="userSpaceOnUse">
      <stop offset="0%" stop-color="#1a1a1a" />
      <stop offset="100%" stop-color="#0a0a0a" />
    </linearGradient>
    <linearGradient id="blade" x1="32" y1="6" x2="32" y2="58" gradientUnits="userSpaceOnUse">
      <stop offset="0%" stop-color="#e5e5e5" />
      <stop offset="100%" stop-color="#9a9a9a" />
    </linearGradient>
    <linearGradient id="hilt" x1="14" y1="40" x2="50" y2="40" gradientUnits="userSpaceOnUse">
      <stop offset="0%" stop-color="#b8742a" />
      <stop offset="100%" stop-color="#8a5418" />
    </linearGradient>
  </defs>

  <rect width="64" height="64" rx="14" fill="url(#bg)" />
  <rect x="0.5" y="0.5" width="63" height="63" rx="13.5" stroke="#3a3a3a" stroke-opacity="0.6" />

  <g>
    <path d="M32 6 L36 30 L36 44 L28 44 L28 30 Z" fill="url(#blade)" />
    <path d="M32 6 L36 30 L36 44 L28 44 L28 30 Z" fill="none" stroke="#2a2a2a" stroke-width="0.8" stroke-opacity="0.5" />
    <path d="M32 6 L34 30 L34 44 L30 44 L30 30 Z" fill="#ffffff" fill-opacity="0.35" />

    <rect x="14" y="44" width="36" height="5" rx="2.5" fill="url(#hilt)" />
    <rect x="14" y="44" width="36" height="5" rx="2.5" fill="none" stroke="#5a3a14" stroke-width="0.6" />

    <rect x="29" y="49" width="6" height="9" rx="1.5" fill="url(#hilt)" />
    <circle cx="32" cy="58" r="2.4" fill="#d4a050" />
  </g>
</svg>
